<svg width="35" height="35" viewBox="0 0 35 35" fill="none" xmlns="http://www.w3.org/2000/svg">
<g id="World" clip-path="url(#clip0_8_157)">
<path id="Vector" d="M17.4925 2.91667C9.43525 2.91667 2.9165 9.44271 2.9165 17.5C2.9165 25.5573 9.43525 32.0833 17.4925 32.0833C25.5498 32.0833 32.0832 25.5573 32.0832 17.5C32.0832 9.44271 25.5498 2.91667 17.4925 2.91667ZM27.5915 11.6667H23.2894C22.8155 9.84375 22.1519 8.09375 21.2769 6.475C23.9603 7.39375 26.1915 9.25312 27.5915 11.6667ZM17.4998 5.88437C18.7175 7.63437 19.6655 9.58125 20.2853 11.6667H14.7144C15.3342 9.58125 16.2821 7.63437 17.4998 5.88437ZM6.21234 20.4167C5.97171 19.4833 5.83317 18.5062 5.83317 17.5C5.83317 16.4937 5.97171 15.5167 6.21234 14.5833H11.1342C11.0175 15.5385 10.9373 16.5083 10.9373 17.5C10.9373 18.4917 11.0175 19.4615 11.1415 20.4167H6.21234ZM7.40088 23.3333H11.703C12.1769 25.1562 12.8405 26.9062 13.7155 28.5323C11.0533 27.6161 8.8111 25.7701 7.40088 23.3333ZM11.703 11.6667H7.40088C8.80088 9.25312 11.0321 7.38646 13.7155 6.46771C12.8405 8.09375 12.1769 9.84375 11.703 11.6667ZM17.4998 29.1156C16.2894 27.3656 15.3415 25.4187 14.7144 23.3333H20.2853C19.6582 25.4187 18.7103 27.3656 17.4998 29.1156ZM20.9123 20.4167H14.0873C13.9488 19.4615 13.854 18.4917 13.854 17.5C13.854 16.5083 13.9488 15.5385 14.0873 14.5833H20.9123C21.0509 15.5385 21.1457 16.5083 21.1457 17.5C21.1457 18.4917 21.0509 19.4615 20.9123 20.4167ZM21.2842 28.525C22.1592 26.899 22.8228 25.1562 23.2967 23.3333H27.5988C26.1846 25.7651 23.9435 27.6076 21.2842 28.525ZM23.8582 20.4167C23.9748 19.4615 24.0623 18.4917 24.0623 17.5C24.0623 16.5083 23.9821 15.5385 23.8582 14.5833H28.78C29.0207 15.5167 29.1665 16.4937 29.1665 17.5C29.1665 18.5062 29.028 19.4833 28.78 20.4167H23.8582Z" fill="black"/>
</g>
<defs>
<clipPath id="clip0_8_157">
<rect width="35" height="35" fill="white"/>
</clipPath>
</defs>
</svg>
